<svg color-interpolation="auto" height="960" stroke="#000" stroke-linecap="square" stroke-miterlimit="10" width="960" xmlns="http://www.w3.org/2000/svg"><path d="m0 0h960v960h-960z" fill="#fff" stroke="none"/><g stroke-linecap="round"><g stroke="none"><path d="m0 0h960v.25h-960z"/><path d="m0 0h.25v960h-.25z"/><path d="m0 96h960v.25h-960z"/><path d="m96 0h.25v960h-.25z"/><path d="m0 192h960v.25h-960z"/><path d="m192 0h.25v960h-.25z"/><path d="m0 288h960v.25h-960z"/><path d="m288 0h.25v960h-.25z"/><path d="m0 384h960v.25h-960z"/><path d="m384 0h.25v960h-.25z"/><path d="m0 480h960v.25h-960z"/><path d="m480 0h.25v960h-.25z"/><path d="m0 576h960v.25h-960z"/><path d="m576 0h.25v960h-.25z"/><path d="m0 672h960v.25h-960z"/><path d="m672 0h.25v960h-.25z"/><path d="m0 768h960v.25h-960z"/><path d="m768 0h.25v960h-.25z"/><path d="m0 864h960v.25h-960z"/><path d="m864 0h.25v960h-.25z"/></g><path d="m0 192 192-192" fill="none" stroke="#4682b4" stroke-opacity=".3882"/><path d="m0 384 288-288" fill="none" stroke="#4682b4" stroke-opacity=".3882"/><path d="m0 384 192-192" fill="none" stroke="#4682b4" stroke-opacity=".3882"/><path d="m48 288v96" fill="none" stroke="#000" stroke-opacity=".3882"/><path d="m-96 288 288 288" fill="none" stroke="#ff4500" stroke-opacity=".3882"/><path d="m-96 384 576 576" fill="none" stroke="#ff4500" stroke-opacity=".3882"/><path d="m48 576v576" fill="none" stroke="#000" stroke-opacity=".3882"/><path d="m-96 576 288 288" fill="none" stroke="#ff4500" stroke-opacity=".3882"/><path d="m0 816h480" fill="none" stroke="#ffd700" stroke-opacity=".3882"/><path d="m-96 768 192 192" fill="none" stroke="#ff4500" stroke-opacity=".3882"/><path d="m96 96 96-96" fill="none" stroke="#4682b4" stroke-opacity=".3882"/><path d="m96 144h192" fill="none" stroke="#ffd700" stroke-opacity=".3882"/><path d="m96 288 96-96" fill="none" stroke="#4682b4" stroke-opacity=".3882"/><path d="m96 336h288" fill="none" stroke="#ffd700" stroke-opacity=".3882"/><path d="m0 288 576 576" fill="none" stroke="#ff4500" stroke-opacity=".3882"/><path d="m96 528h288" fill="none" stroke="#ffd700" stroke-opacity=".3882"/><path d="m0 480 672 672" fill="none" stroke="#ff4500" stroke-opacity=".3882"/><path d="m0 576 576 576" fill="none" stroke="#ff4500" stroke-opacity=".3882"/><path d="m144 768v576" fill="none" stroke="#000" stroke-opacity=".3882"/><path d="m0 768 480 480" fill="none" stroke="#ff4500" stroke-opacity=".3882"/><path d="m192 48h96" fill="none" stroke="#ffd700" stroke-opacity=".3882"/><path d="m192 672 576-576" fill="none" stroke="#4682b4" stroke-opacity=".3882"/><path d="m192 240h576" fill="none" stroke="#ffd700" stroke-opacity=".3882"/><path d="m192 336h384" fill="none" stroke="#ffd700" stroke-opacity=".3882"/><path d="m192 432h384" fill="none" stroke="#ffd700" stroke-opacity=".3882"/><path d="m96 384 192 192" fill="none" stroke="#ff4500" stroke-opacity=".3882"/><path d="m240 576v96" fill="none" stroke="#000" stroke-opacity=".3882"/><path d="m192 720h192" fill="none" stroke="#ffd700" stroke-opacity=".3882"/><path d="m96 672 192 192" fill="none" stroke="#ff4500" stroke-opacity=".3882"/><path d="m240 864v576" fill="none" stroke="#000" stroke-opacity=".3882"/><path d="m192-96 192 192" fill="none" stroke="#ff4500" stroke-opacity=".3882"/><path d="m336 96v288" fill="none" stroke="#000" stroke-opacity=".3882"/><path d="m192 96 576 576" fill="none" stroke="#ff4500" stroke-opacity=".3882"/><path d="m288 672 384-384" fill="none" stroke="#4682b4" stroke-opacity=".3882"/><path d="m336 384v96" fill="none" stroke="#000" stroke-opacity=".3882"/><path d="m288 528h96" fill="none" stroke="#ffd700" stroke-opacity=".3882"/><path d="m192 480 192 192" fill="none" stroke="#ff4500" stroke-opacity=".3882"/><path d="m192 576 672 672" fill="none" stroke="#ff4500" stroke-opacity=".3882"/><path d="m192 672 192 192" fill="none" stroke="#ff4500" stroke-opacity=".3882"/><path d="m288 1440 576-576" fill="none" stroke="#4682b4" stroke-opacity=".3882"/><path d="m384 48h384" fill="none" stroke="#ffd700" stroke-opacity=".3882"/><path d="m432 96v96" fill="none" stroke="#000" stroke-opacity=".3882"/><path d="m384 240h288" fill="none" stroke="#ffd700" stroke-opacity=".3882"/><path d="m384 336h480" fill="none" stroke="#ffd700" stroke-opacity=".3882"/><path d="m288 288 480 480" fill="none" stroke="#ff4500" stroke-opacity=".3882"/><path d="m432 480v288" fill="none" stroke="#000" stroke-opacity=".3882"/><path d="m384 624h192" fill="none" stroke="#ffd700" stroke-opacity=".3882"/><path d="m384 720h576" fill="none" stroke="#ffd700" stroke-opacity=".3882"/><path d="m384 960 192-192" fill="none" stroke="#4682b4" stroke-opacity=".3882"/><path d="m384 912h96" fill="none" stroke="#ffd700" stroke-opacity=".3882"/><path d="m480 48h96" fill="none" stroke="#ffd700" stroke-opacity=".3882"/><path d="m384 0 672 672" fill="none" stroke="#ff4500" stroke-opacity=".3882"/><path d="m528 192v480" fill="none" stroke="#000" stroke-opacity=".3882"/><path d="m528 288v480" fill="none" stroke="#000" stroke-opacity=".3882"/><path d="m528 384v576" fill="none" stroke="#000" stroke-opacity=".3882"/><path d="m480 528h96" fill="none" stroke="#ffd700" stroke-opacity=".3882"/><path d="m480 624h192" fill="none" stroke="#ffd700" stroke-opacity=".3882"/><path d="m480 960 288-288" fill="none" stroke="#4682b4" stroke-opacity=".3882"/><path d="m528 768v192" fill="none" stroke="#000" stroke-opacity=".3882"/><path d="m480 912h192" fill="none" stroke="#ffd700" stroke-opacity=".3882"/><path d="m624 0v480" fill="none" stroke="#000" stroke-opacity=".3882"/><path d="m624 96v192" fill="none" stroke="#000" stroke-opacity=".3882"/><path d="m576 576 384-384" fill="none" stroke="#4682b4" stroke-opacity=".3882"/><path d="m576 336h192" fill="none" stroke="#ffd700" stroke-opacity=".3882"/><path d="m576 432h384" fill="none" stroke="#ffd700" stroke-opacity=".3882"/><path d="m576 528h96" fill="none" stroke="#ffd700" stroke-opacity=".3882"/><path d="m576 624h192" fill="none" stroke="#ffd700" stroke-opacity=".3882"/><path d="m576 768 96-96" fill="none" stroke="#4682b4" stroke-opacity=".3882"/><path d="m576 1056 288-288" fill="none" stroke="#4682b4" stroke-opacity=".3882"/><path d="m480 768 384 384" fill="none" stroke="#ff4500" stroke-opacity=".3882"/><path d="m720 0v96" fill="none" stroke="#000" stroke-opacity=".3882"/><path d="m672 144h192" fill="none" stroke="#ffd700" stroke-opacity=".3882"/><path d="m672 240h576" fill="none" stroke="#ffd700" stroke-opacity=".3882"/><path d="m672 672 384-384" fill="none" stroke="#4682b4" stroke-opacity=".3882"/><path d="m672 432h96" fill="none" stroke="#ffd700" stroke-opacity=".3882"/><path d="m672 1056 576-576" fill="none" stroke="#4682b4" stroke-opacity=".3882"/><path d="m672 960 384-384" fill="none" stroke="#4682b4" stroke-opacity=".3882"/><path d="m576 576 672 672" fill="none" stroke="#ff4500" stroke-opacity=".3882"/><path d="m672 816h384" fill="none" stroke="#ffd700" stroke-opacity=".3882"/><path d="m672 1440 576-576" fill="none" stroke="#4682b4" stroke-opacity=".3882"/><path d="m768 48h288" fill="none" stroke="#ffd700" stroke-opacity=".3882"/><path d="m768 192 96-96" fill="none" stroke="#4682b4" stroke-opacity=".3882"/><path d="m672 96 576 576" fill="none" stroke="#ff4500" stroke-opacity=".3882"/><path d="m672 192 384 384" fill="none" stroke="#ff4500" stroke-opacity=".3882"/><path d="m768 432h96" fill="none" stroke="#ffd700" stroke-opacity=".3882"/><path d="m768 768 288-288" fill="none" stroke="#4682b4" stroke-opacity=".3882"/><path d="m768 768 192-192" fill="none" stroke="#4682b4" stroke-opacity=".3882"/><path d="m816 672v192" fill="none" stroke="#000" stroke-opacity=".3882"/><path d="m768 1344 576-576" fill="none" stroke="#4682b4" stroke-opacity=".3882"/><path d="m816 864v192" fill="none" stroke="#000" stroke-opacity=".3882"/><path d="m864 576 576-576" fill="none" stroke="#4682b4" stroke-opacity=".3882"/><path d="m912 96v480" fill="none" stroke="#000" stroke-opacity=".3882"/><path d="m912 192v384" fill="none" stroke="#000" stroke-opacity=".3882"/><path d="m912 288v288" fill="none" stroke="#000" stroke-opacity=".3882"/><path d="m864 432h96" fill="none" stroke="#ffd700" stroke-opacity=".3882"/><path d="m864 576 96-96" fill="none" stroke="#4682b4" stroke-opacity=".3882"/><path d="m864 1152 576-576" fill="none" stroke="#4682b4" stroke-opacity=".3882"/><path d="m864 1248 576-576" fill="none" stroke="#4682b4" stroke-opacity=".3882"/><path d="m864 1152 384-384" fill="none" stroke="#4682b4" stroke-opacity=".3882"/><path d="m768 768 288 288" fill="none" stroke="#ff4500" stroke-opacity=".3882"/></g></svg>